<svg xmlns="http://www.w3.org/2000/svg" fill="none" viewBox="0 0 241 44" height="44" width="241">
<path fill="url(#paint0_linear_267_33)" d="M74.8604 11.9091H79.3196V25.6058C79.3196 27.1437 78.9523 28.4893 78.2177 29.6428C77.4899 30.7962 76.4704 31.6955 75.1591 32.3409C73.8478 32.9794 72.3202 33.2987 70.5763 33.2987C68.8256 33.2987 67.2946 32.9794 65.9833 32.3409C64.672 31.6955 63.6525 30.7962 62.9247 29.6428C62.197 28.4893 61.8331 27.1437 61.8331 25.6058V11.9091H66.2923V25.2248C66.2923 26.0281 66.4673 26.7421 66.8175 27.3668C67.1745 27.9916 67.6757 28.4825 68.321 28.8395C68.9664 29.1965 69.7182 29.375 70.5763 29.375C71.4414 29.375 72.1932 29.1965 72.8317 28.8395C73.477 28.4825 73.9748 27.9916 74.3249 27.3668C74.6819 26.7421 74.8604 26.0281 74.8604 25.2248V11.9091ZM85.4637 33H80.6853L87.9662 11.9091H93.7126L100.983 33H96.2048L90.9218 16.7287H90.757L85.4637 33ZM85.165 24.7099H96.452V28.1907H85.165V24.7099ZM102.362 33V11.9091H106.821V20.6112H115.873V11.9091H120.322V33H115.873V24.2876H106.821V33H102.362ZM146.999 19.293H142.489C142.406 18.7094 142.238 18.1911 141.984 17.7379C141.73 17.2779 141.404 16.8866 141.006 16.5639C140.608 16.2412 140.148 15.9941 139.626 15.8224C139.111 15.6508 138.551 15.565 137.947 15.565C136.856 15.565 135.905 15.8362 135.095 16.3786C134.284 16.9141 133.656 17.6967 133.21 18.7266C132.764 19.7495 132.541 20.9922 132.541 22.4545C132.541 23.9581 132.764 25.2214 133.21 26.2443C133.663 27.2673 134.295 28.0397 135.105 28.5614C135.915 29.0832 136.852 29.3441 137.916 29.3441C138.514 29.3441 139.066 29.2652 139.574 29.1072C140.089 28.9493 140.546 28.7193 140.944 28.4173C141.342 28.1083 141.672 27.7341 141.933 27.2947C142.2 26.8554 142.386 26.3542 142.489 25.7912L146.999 25.8118C146.883 26.7798 146.591 27.7135 146.124 28.6129C145.664 29.5054 145.043 30.3053 144.26 31.0124C143.484 31.7127 142.557 32.2688 141.479 32.6808C140.408 33.0858 139.197 33.2884 137.844 33.2884C135.963 33.2884 134.281 32.8627 132.798 32.0114C131.322 31.16 130.155 29.9277 129.297 28.3143C128.445 26.7009 128.02 24.7476 128.02 22.4545C128.02 20.1546 128.452 18.1979 129.317 16.5845C130.182 14.9711 131.356 13.7422 132.839 12.8977C134.322 12.0464 135.991 11.6207 137.844 11.6207C139.066 11.6207 140.199 11.7924 141.243 12.1357C142.293 12.4789 143.223 12.9801 144.033 13.6392C144.844 14.2914 145.503 15.0913 146.011 16.0387C146.526 16.9861 146.855 18.0709 146.999 19.293ZM156.102 33.3089C154.502 33.3089 153.119 32.9691 151.951 32.2894C150.791 31.6029 149.895 30.6486 149.264 29.4265C148.632 28.1976 148.316 26.773 148.316 25.1527C148.316 23.5187 148.632 22.0907 149.264 20.8686C149.895 19.6397 150.791 18.6854 151.951 18.0057C153.119 17.3191 154.502 16.9759 156.102 16.9759C157.701 16.9759 159.081 17.3191 160.242 18.0057C161.409 18.6854 162.308 19.6397 162.94 20.8686C163.571 22.0907 163.887 23.5187 163.887 25.1527C163.887 26.773 163.571 28.1976 162.94 29.4265C162.308 30.6486 161.409 31.6029 160.242 32.2894C159.081 32.9691 157.701 33.3089 156.102 33.3089ZM156.122 29.9105C156.85 29.9105 157.458 29.7045 157.945 29.2926C158.432 28.8738 158.8 28.304 159.047 27.5831C159.301 26.8622 159.428 26.0418 159.428 25.1218C159.428 24.2018 159.301 23.3814 159.047 22.6605C158.8 21.9396 158.432 21.3698 157.945 20.951C157.458 20.5322 156.85 20.3228 156.122 20.3228C155.388 20.3228 154.77 20.5322 154.269 20.951C153.774 21.3698 153.4 21.9396 153.146 22.6605C152.899 23.3814 152.775 24.2018 152.775 25.1218C152.775 26.0418 152.899 26.8622 153.146 27.5831C153.4 28.304 153.774 28.8738 154.269 29.2926C154.77 29.7045 155.388 29.9105 156.122 29.9105ZM169.967 23.8551V33H165.58V17.1818H169.761V19.9727H169.946C170.296 19.0527 170.883 18.3249 171.707 17.7894C172.531 17.247 173.53 16.9759 174.704 16.9759C175.803 16.9759 176.76 17.2161 177.577 17.6967C178.394 18.1773 179.029 18.8639 179.482 19.7564C179.936 20.642 180.162 21.6993 180.162 22.9283V33H175.775V23.7109C175.782 22.7429 175.535 21.9877 175.034 21.4453C174.532 20.8961 173.842 20.6214 172.964 20.6214C172.373 20.6214 171.851 20.7485 171.398 21.0025C170.952 21.2565 170.602 21.6272 170.348 22.1147C170.101 22.5953 169.974 23.1754 169.967 23.8551ZM186.847 23.8551V33H182.46V17.1818H186.641V19.9727H186.826C187.176 19.0527 187.763 18.3249 188.587 17.7894C189.411 17.247 190.41 16.9759 191.584 16.9759C192.683 16.9759 193.64 17.2161 194.457 17.6967C195.274 18.1773 195.909 18.8639 196.363 19.7564C196.816 20.642 197.042 21.6993 197.042 22.9283V33H192.655V23.7109C192.662 22.7429 192.415 21.9877 191.914 21.4453C191.412 20.8961 190.722 20.6214 189.844 20.6214C189.253 20.6214 188.731 20.7485 188.278 21.0025C187.832 21.2565 187.482 21.6272 187.228 22.1147C186.981 22.5953 186.854 23.1754 186.847 23.8551ZM206.549 33.3089C204.922 33.3089 203.521 32.9794 202.347 32.3203C201.18 31.6544 200.28 30.7138 199.649 29.4986C199.017 28.2765 198.701 26.8313 198.701 25.163C198.701 23.5359 199.017 22.1078 199.649 20.8789C200.28 19.65 201.17 18.6922 202.316 18.0057C203.469 17.3191 204.822 16.9759 206.374 16.9759C207.417 16.9759 208.389 17.1441 209.288 17.4805C210.194 17.81 210.984 18.3078 211.657 18.9737C212.336 19.6397 212.865 20.4773 213.243 21.4865C213.62 22.4889 213.809 23.6629 213.809 25.0085V26.2134H200.452V23.4947H209.679C209.679 22.863 209.542 22.3035 209.267 21.8161C208.993 21.3286 208.612 20.9476 208.124 20.6729C207.644 20.3915 207.084 20.2507 206.446 20.2507C205.78 20.2507 205.189 20.4052 204.674 20.7141C204.166 21.0162 203.768 21.4247 203.48 21.9396C203.191 22.4477 203.044 23.0141 203.037 23.6388V26.2237C203.037 27.0064 203.181 27.6826 203.469 28.2525C203.765 28.8223 204.18 29.2617 204.716 29.5707C205.251 29.8796 205.886 30.0341 206.621 30.0341C207.108 30.0341 207.554 29.9654 207.96 29.8281C208.365 29.6908 208.711 29.4848 209 29.2102C209.288 28.9356 209.508 28.5992 209.659 28.201L213.716 28.4688C213.51 29.4437 213.088 30.295 212.45 31.0227C211.818 31.7436 211.001 32.3066 209.999 32.7116C209.003 33.1098 207.853 33.3089 206.549 33.3089ZM222.659 33.3089C221.039 33.3089 219.645 32.9657 218.478 32.2791C217.318 31.5857 216.425 30.6245 215.8 29.3956C215.182 28.1667 214.873 26.7524 214.873 25.1527C214.873 23.5324 215.186 22.1113 215.811 20.8892C216.442 19.6603 217.338 18.7025 218.498 18.016C219.659 17.3226 221.039 16.9759 222.638 16.9759C224.018 16.9759 225.227 17.2264 226.263 17.7276C227.3 18.2288 228.12 18.9325 228.725 19.8388C229.329 20.745 229.662 21.8092 229.724 23.0312H225.584C225.467 22.2417 225.158 21.6067 224.657 21.1261C224.162 20.6386 223.514 20.3949 222.71 20.3949C222.031 20.3949 221.437 20.5803 220.929 20.951C220.428 21.3149 220.036 21.8469 219.755 22.5472C219.473 23.2475 219.333 24.0954 219.333 25.0909C219.333 26.1001 219.47 26.9583 219.744 27.6655C220.026 28.3726 220.421 28.9116 220.929 29.2823C221.437 29.6531 222.031 29.8384 222.71 29.8384C223.212 29.8384 223.661 29.7354 224.059 29.5295C224.465 29.3235 224.798 29.0249 225.058 28.6335C225.326 28.2353 225.501 27.7582 225.584 27.2021H229.724C229.655 28.4104 229.325 29.4746 228.735 30.3945C228.151 31.3076 227.345 32.0217 226.315 32.5366C225.285 33.0515 224.066 33.3089 222.659 33.3089ZM239.786 17.1818V20.4773H230.26V17.1818H239.786ZM232.423 13.392H236.81V28.1392C236.81 28.5443 236.872 28.8601 236.995 29.0866C237.119 29.3063 237.29 29.4608 237.51 29.5501C237.737 29.6393 237.998 29.6839 238.293 29.6839C238.499 29.6839 238.705 29.6668 238.911 29.6325C239.117 29.5913 239.275 29.5604 239.384 29.5398L240.074 32.8043C239.855 32.873 239.546 32.9519 239.148 33.0412C238.749 33.1373 238.265 33.1957 237.696 33.2163C236.638 33.2575 235.711 33.1167 234.915 32.794C234.125 32.4714 233.511 31.9702 233.072 31.2905C232.632 30.6108 232.416 29.7526 232.423 28.7159V13.392Z"></path>
<path fill="black" d="M23.0886 2.69121C23.236 2.4506 23.399 2.22551 23.562 2.00818C23.1739 1.6589 22.747 1.34067 22.2813 1.06125C18.8972 -0.941275 14.6516 -0.0176308 12.6102 3.05601C12.5171 3.19572 12.4317 3.33543 12.3463 3.47514C12.0824 3.93308 11.6167 4.94211 11.4615 6.0598C11.4615 6.07532 11.446 6.19175 11.446 6.18398C11.6478 6.28489 11.8574 6.39355 12.0514 6.50998C14.1083 7.61214 19.4949 7.9847 23.0886 2.68345V2.69121Z"></path>
<path fill="black" d="M25.3084 3.52172C27.6137 6.01324 28.1803 9.7311 26.4261 12.7116C25.3162 14.7995 24.7729 20.2638 31.5877 24.6647C31.8438 24.75 32.0767 24.8509 32.2862 24.9518C32.4027 25.0062 32.5113 25.076 32.6277 25.1381C35.259 26.5896 38.5111 26.0928 40.7465 24.0748C40.6766 24.0204 40.11 23.6401 40.11 23.6401C34.5915 19.8524 34.8631 14.1475 36.0895 11.7802C36.1205 11.7181 36.1593 11.656 36.1904 11.5939C38.0377 8.3728 36.9743 4.25909 33.7687 2.3497C30.9667 0.680934 27.4507 1.24754 25.3084 3.52172Z"></path>
<path fill="black" d="M41.3364 23.0891C41.577 23.2365 41.8021 23.3995 42.0194 23.5625C42.3687 23.1822 42.6869 22.7475 42.9664 22.2818C44.9068 18.9986 44.0841 14.5124 40.762 12.471C40.6844 12.4245 40.6146 12.3779 40.5137 12.3236C40.0402 12.0597 39.0622 11.6095 37.9756 11.462C37.9601 11.462 37.8281 11.4465 37.8281 11.4387C37.8048 11.4775 37.7893 11.5241 37.766 11.5629C37.6884 11.7259 37.5953 11.8811 37.5021 12.0441C36.3999 14.101 36.0274 19.4876 41.3286 23.0813L41.3364 23.0891Z"></path>
<path fill="black" d="M40.5059 25.3088C38.0144 27.6141 34.2965 28.1807 31.316 26.4265C29.2281 25.3166 23.7639 24.7733 19.363 31.5881C19.2621 31.883 19.1456 32.178 18.9904 32.4496C17.4148 35.1119 17.8882 38.4572 19.9529 40.7469C20.0072 40.677 20.3875 40.1104 20.3875 40.1104C24.1597 34.6151 29.8335 34.8635 32.2164 36.0743C32.2707 36.1054 32.325 36.1287 32.3794 36.1597C35.6082 38.0536 39.7608 36.9902 41.6779 33.7691C43.3467 30.9671 42.7801 27.4511 40.5059 25.3088Z"></path>
<path fill="black" d="M20.9386 41.3368C20.7911 41.5774 20.6281 41.8025 20.4651 42.0198C20.8532 42.3691 21.2801 42.6873 21.7458 42.9668C24.9514 44.8606 29.3057 44.1233 31.4014 40.9953C31.4945 40.8556 31.5877 40.7081 31.673 40.5606C31.9369 40.1105 32.4026 39.1014 32.5579 37.9837C32.5579 37.9372 32.5734 37.8906 32.5734 37.844C32.5734 37.844 32.0301 37.5569 31.968 37.518C29.9111 36.4159 24.5245 36.0433 20.9308 41.3446L20.9386 41.3368Z"></path>
<path fill="black" d="M18.7187 40.5063C16.4135 38.0148 15.8469 34.297 17.601 31.3165C18.711 29.2286 19.2543 23.7643 12.4395 19.3634C12.1446 19.2625 11.8418 19.1539 11.5779 18.9909C8.91568 17.4152 5.57038 17.8887 3.28067 19.9533C3.35053 20.0076 3.91713 20.388 3.91713 20.388C9.40467 24.1524 9.17182 29.8107 7.96099 32.2013C7.92218 32.2712 7.88337 32.341 7.84456 32.4109C5.98175 35.632 7.0451 39.7612 10.2507 41.6784C13.0527 43.3471 16.5687 42.7805 18.711 40.5063H18.7187Z"></path>
<path fill="black" d="M2.69079 20.939C2.45018 20.7915 2.22509 20.6285 2.00776 20.4655C1.65848 20.8458 1.34025 21.2805 1.06083 21.7462C-0.933932 25.1225 -0.0258108 29.3604 3.03231 31.4095C3.17978 31.5104 3.33501 31.6036 3.49801 31.6967C3.97148 31.9684 4.97274 32.4263 6.09043 32.5738C6.10595 32.5738 6.19909 32.5816 6.19133 32.5893C6.29223 32.3875 6.40089 32.178 6.51732 31.9839C7.61948 29.9271 7.99205 24.5404 2.69079 20.9467V20.939Z"></path>
<path fill="black" d="M3.5213 18.7191C6.01281 16.4139 9.73067 15.8473 12.7112 17.6014C14.7991 18.7114 20.2633 19.2547 24.6642 12.4399C24.7574 12.1605 24.866 11.9043 24.9825 11.6715C25.0135 11.6016 25.0523 11.5395 25.0911 11.4697C26.5891 8.82294 26.1079 5.53197 24.0666 3.28107C23.9424 3.44406 23.826 3.61482 23.7173 3.78558C23.6707 3.8632 23.6164 3.93305 23.5698 4.01067C19.7976 9.41283 14.1704 9.15669 11.8031 7.94586C11.7254 7.90705 11.6478 7.86048 11.5702 7.81391C8.35685 5.98991 4.2509 7.05326 2.34928 10.2433C0.680506 13.0453 1.24711 16.5614 3.5213 18.7036V18.7191Z"></path>
<defs>
<linearGradient gradientUnits="userSpaceOnUse" y2="-50.0705" x2="213.459" y1="20.254" x1="247.756" id="paint0_linear_267_33">
<stop stop-color="#666666"></stop>
<stop offset="1"></stop>
</linearGradient>
</defs>
</svg>
